<?xml version="1.0" encoding="UTF-8"?>
<!-- Generator: Adobe Illustrator 16.0.0, SVG Export Plug-In . SVG Version: 6.00 Build 0)  -->
<!DOCTYPE svg PUBLIC "-//W3C//DTD SVG 1.1//EN" "http://www.w3.org/Graphics/SVG/1.1/DTD/svg11.dtd">
<svg version="1.1" id="Layer_1" xmlns="http://www.w3.org/2000/svg" xmlns:xlink="http://www.w3.org/1999/xlink" x="0px" y="0px" width="66px" height="100px" viewBox="0 0 66 100" enable-background="new 0 0 66 100" xml:space="preserve">
<path fill="#39B54A" d="M65.427,64.474c-0.898-8.545-5.071-16.227-11.748-21.633c-3.511-2.841-7.498-4.852-11.728-6.012  c0.048-0.013,0.096-0.021,0.142-0.032c3.57-0.976,6.952-2.371,10.063-4.402c3.469-2.267,6.186-5.202,7.969-8.965  c1.719-3.632,2.478-7.496,2.713-11.478c0.148-2.504,0.046-5-0.248-7.49c-0.061-0.51-0.147-1.019-0.221-1.528  c-0.09,0-0.129-0.005-0.169,0c-2.542,0.256-5.037,0.75-7.489,1.464c-3.347,0.976-6.521,2.327-9.424,4.279  c-3.146,2.113-5.646,4.801-7.329,8.213c-1.836,3.726-2.625,7.702-2.844,11.814c-0.117,2.186-0.033,4.365,0.191,6.544  c0.018,0.17,0.047,0.343,0.066,0.512c-0.993-0.057-1.991-0.07-2.995-0.035c0.026-0.328,0.067-0.654,0.085-0.982  c0.148-2.95,0.013-5.894-0.41-8.82c-0.388-2.684-1.023-5.303-2.025-7.826c-1.227-3.096-2.925-5.89-5.267-8.277  c-2.513-2.563-5.467-4.477-8.703-5.975c-2.802-1.298-5.731-2.235-8.746-2.875C5.638,0.614,3.94,0.385,2.25,0.116  C1.802,0.046,1.346,0.041,0.863,0C0.79,0.572,0.707,1.106,0.652,1.642c-0.284,2.796-0.342,5.6-0.142,8.406  c0.214,2.981,0.71,5.908,1.6,8.767c1.571,5.053,4.325,9.286,8.571,12.505c2.748,2.081,5.794,3.594,9.03,4.739  c1.281,0.454,2.58,0.829,3.89,1.164c-5.913,1.888-11.158,5.443-15.153,10.378C3.042,54.278,0.561,62.661,1.46,71.207  C3.2,87.699,17.186,100,33.419,100c1.121,0,2.252-0.059,3.392-0.18c8.544-0.9,16.226-5.071,21.63-11.746  C63.846,81.395,66.326,73.016,65.427,64.474z M44.651,76.907c-2.426,2.996-5.867,4.867-9.698,5.267  c-3.832,0.4-7.585-0.708-10.58-3.129c-2.991-2.426-4.862-5.867-5.267-9.696c-0.402-3.829,0.708-7.588,3.134-10.581  c2.421-2.993,5.864-4.864,9.695-5.267c0.513-0.054,1.025-0.081,1.536-0.081c3.287,0,6.452,1.112,9.043,3.213  c2.991,2.423,4.862,5.865,5.265,9.694C48.183,70.157,47.074,73.915,44.651,76.907z"/>
</svg>